<?xml version="1.0" encoding="UTF-8"?>
<svg id="Layer_2" data-name="Layer 2" xmlns="http://www.w3.org/2000/svg" viewBox="0 0 62 62">
  <defs>
    <style>
      .cls-1 {
        stroke-width: 0px;
      }
    </style>
  </defs>
  <g id="Layer_1-2" data-name="Layer 1">
    <g id="upcoming_Project" data-name="upcoming Project">
      <path class="cls-1" d="M22,16h-6c-.55,0-1-.45-1-1s.45-1,1-1h6c.55,0,1,.45,1,1s-.45,1-1,1Z"/>
      <path class="cls-1" d="M61,62H8c-4.41,0-8-3.59-8-8V8C0,3.59,3.59,0,8,0h1c1.65,0,3,1.35,3,3v42c0,1.65-1.35,3-3,3h-1c-3.31,0-6,2.69-6,6s2.69,6,6,6h52V16h-16c-.55,0-1-.45-1-1s.45-1,1-1h17c.55,0,1,.45,1,1v46c0,.55-.45,1-1,1ZM8,2c-3.31,0-6,2.69-6,6v40.71c1.47-1.66,3.61-2.71,6-2.71h1c.55,0,1-.45,1-1V3c0-.55-.45-1-1-1h-1Z"/>
      <path class="cls-1" d="M55,55H17c-.55,0-1-.45-1-1s.45-1,1-1h38c.55,0,1,.45,1,1s-.45,1-1,1Z"/>
      <path class="cls-1" d="M52,55c-.55,0-1-.45-1-1v-26h-16v26c0,.55-.45,1-1,1s-1-.45-1-1v-27c0-.55.45-1,1-1h18c.55,0,1,.45,1,1v27c0,.55-.45,1-1,1Z"/>
      <path class="cls-1" d="M45,55c-.55,0-1-.45-1-1v-6h-3v6c0,.55-.45,1-1,1s-1-.45-1-1v-7c0-.55.45-1,1-1h5c.55,0,1,.45,1,1v7c0,.55-.45,1-1,1Z"/>
      <path class="cls-1" d="M46,43c-.55,0-1-.45-1-1v-2c0-.55.45-1,1-1s1,.45,1,1v2c0,.55-.45,1-1,1Z"/>
      <path class="cls-1" d="M39,43c-.55,0-1-.45-1-1v-2c0-.55.45-1,1-1s1,.45,1,1v2c0,.55-.45,1-1,1Z"/>
      <path class="cls-1" d="M28,43c-.55,0-1-.45-1-1v-2c0-.55.45-1,1-1s1,.45,1,1v2c0,.55-.45,1-1,1Z"/>
      <path class="cls-1" d="M28,50c-.55,0-1-.45-1-1v-2c0-.55.45-1,1-1s1,.45,1,1v2c0,.55-.45,1-1,1Z"/>
      <path class="cls-1" d="M46,36c-.55,0-1-.45-1-1v-2c0-.55.45-1,1-1s1,.45,1,1v2c0,.55-.45,1-1,1Z"/>
      <path class="cls-1" d="M39,36c-.55,0-1-.45-1-1v-2c0-.55.45-1,1-1s1,.45,1,1v2c0,.55-.45,1-1,1Z"/>
      <path class="cls-1" d="M22,55c-.55,0-1-.45-1-1v-15c0-.33.17-.65.45-.83l12-8c.46-.31,1.08-.18,1.39.28.31.46.18,1.08-.28,1.39l-11.55,7.7v14.47c0,.55-.45,1-1,1Z"/>
      <path class="cls-1" d="M21,28c-.26,0-.52-.1-.71-.29-.23-.23-.33-.55-.28-.87l1-6c.03-.21.13-.4.28-.54L41.29.29c.39-.39,1.02-.39,1.41,0l5,5c.39.39.39,1.02,0,1.41l-20,20c-.15.15-.34.25-.54.28l-6,1c-.05,0-.11.01-.16.01ZM22.93,21.48l-.72,4.3,4.3-.72L45.59,6l-3.59-3.59-19.07,19.07Z"/>
      <path class="cls-1" d="M44,10c-.26,0-.51-.1-.71-.29l-5-5c-.39-.39-.39-1.02,0-1.41s1.02-.39,1.41,0l5,5c.39.39.39,1.02,0,1.41-.2.2-.45.29-.71.29Z"/>
      <path class="cls-1" d="M29,25c-.26,0-.51-.1-.71-.29l-5-5c-.39-.39-.39-1.02,0-1.41s1.02-.39,1.41,0l5,5c.39.39.39,1.02,0,1.41-.2.2-.45.29-.71.29Z"/>
    </g>
  </g>
</svg>